<svg width="25" height="23" viewBox="0 0 25 23" fill="none" xmlns="http://www.w3.org/2000/svg">
<path opacity="0.6" d="M11.0009 20.8319L11.0002 20.8312C7.90011 18.0201 5.36747 15.7228 3.60382 13.5666C1.84592 11.4174 0.904297 9.46938 0.904297 7.36563C0.904297 3.94577 3.58444 1.26562 7.0043 1.26562C8.9409 1.26562 10.8074 2.16959 12.0236 3.59779L12.4043 4.04483L12.785 3.59779C14.0012 2.16959 15.8677 1.26562 17.8043 1.26562C21.2242 1.26562 23.9043 3.94577 23.9043 7.36563C23.9043 9.46939 22.9627 11.4174 21.2047 13.5682C19.4449 15.7212 16.9196 18.016 13.8289 20.8246L13.8091 20.8426L13.808 20.8436L12.4056 22.1106L11.0009 20.8319Z" fill="white" stroke="#7F7F7F"/>
</svg>
