<svg width="31" height="31" viewBox="0 0 31 31" fill="none" xmlns="http://www.w3.org/2000/svg">
<path d="M21.5084 19.3826H20.1534L19.6731 18.9195C21.3541 16.964 22.3661 14.4255 22.3661 11.6639C22.3661 5.50607 17.3747 0.514648 11.2169 0.514648C5.05905 0.514648 0.067627 5.50607 0.067627 11.6639C0.067627 17.8217 5.05905 22.8131 11.2169 22.8131C13.9784 22.8131 16.517 21.8011 18.4724 20.1201L18.9356 20.6004V21.9555L27.5119 30.5146L30.0676 27.9589L21.5084 19.3826ZM11.2169 19.3826C6.94584 19.3826 3.49816 15.9349 3.49816 11.6639C3.49816 7.39286 6.94584 3.94518 11.2169 3.94518C15.4879 3.94518 18.9356 7.39286 18.9356 11.6639C18.9356 15.9349 15.4879 19.3826 11.2169 19.3826Z" fill="#7F7F7F"/>
</svg>
